<?xml version="1.0" standalone="yes"?>
<svg width="800" height="800">
<path style="fill:#ffffff; stroke:none;" d="M0 0L0 800L800 800L800 0L0 0z"/>
<path style="fill:#5e5b5b; stroke:none;" d="M342 174L342 175L350 175L342 174z"/>
<path style="fill:#bebdbd; stroke:none;" d="M350.667 174.333L351.333 174.667L350.667 174.333z"/>
<path style="fill:#231f20; stroke:none;" d="M394 235C390.333 216.156 381.835 191.447 365 180.548C360.449 177.601 339.542 169.222 336.712 178.228C334.959 183.808 344.361 190.328 348 193.101C357.276 200.169 366.669 206.769 375 215.004C381.451 221.381 386.823 229.511 394 235z"/>
<path style="fill:#cac9ca; stroke:none;" d="M354.667 175.333L355.333 175.667L354.667 175.333z"/>
<path style="fill:#868485; stroke:none;" d="M359 177L360 178L359 177z"/>
<path style="fill:#8d8b8c; stroke:none;" d="M361 178L362 179L361 178z"/>
<path style="fill:#979595; stroke:none;" d="M336 181L337 182L336 181z"/>
<path style="fill:#9e9d9d; stroke:none;" d="M367 182L368 183L367 182z"/>
<path style="fill:#a9a7a8; stroke:none;" d="M338 184L339 185L338 184z"/>
<path style="fill:#908e8e; stroke:none;" d="M339 185L340 186L339 185z"/>
<path style="fill:#989697; stroke:none;" d="M340 186L341 187L340 186z"/>
<path style="fill:#9b999a; stroke:none;" d="M341 187L342 188L341 187z"/>
<path style="fill:#a7a5a6; stroke:none;" d="M342 188L343 189L342 188z"/>
<path style="fill:#9f9d9e; stroke:none;" d="M375 190L376 191L375 190z"/>
<path style="fill:#817f7f; stroke:none;" d="M347 192L348 193L347 192z"/>
<path style="fill:#9c9a9a; stroke:none;" d="M377 193L378 194L377 193z"/>
<path style="fill:#989697; stroke:none;" d="M351 195L352 196L351 195z"/>
<path style="fill:#828080; stroke:none;" d="M354 197L355 198L354 197z"/>
<path style="fill:#9c9a9a; stroke:none;" d="M380 198L381 199L380 198z"/>
<path style="fill:#969494; stroke:none;" d="M358 200L359 201L358 200z"/>
<path style="fill:#7e7c7d; stroke:none;" d="M381 200L382 201L381 200z"/>
<path style="fill:#7f7d7e; stroke:none;" d="M382 202L383 203L382 202z"/>
<path style="fill:#7a7878; stroke:none;" d="M362 203L363 204L362 203z"/>
<path style="fill:#a7a5a6; stroke:none;" d="M363 204L364 205L363 204z"/>
<path style="fill:#7f7d7e; stroke:none;" d="M383 204L384 205L383 204z"/>
<path style="fill:#7e7b7c; stroke:none;" d="M330.667 206.333L331.333 206.667L330.667 206.333z"/>
<path style="fill:#231f20; stroke:none;" d="M373 236C367.73 224.7 352.548 209.344 340 206.809C335.534 205.906 320.636 205.954 320.636 213.05C320.636 217.739 328.576 219.148 332 219.961C347.283 223.589 358.92 229.341 373 236z"/>
<path style="fill:#7a7878; stroke:none;" d="M338 206L338 207L341 207L338 206z"/>
<path style="fill:#7f7d7e; stroke:none;" d="M384 206L385 207L384 206z"/>
<path style="fill:#c7c6c6; stroke:none;" d="M325 207L325 208L328 208L325 207z"/>
<path style="fill:#908e8e; stroke:none;" d="M343 207L344 208L343 207z"/>
<path style="fill:#929091; stroke:none;" d="M385 208L386 209L385 208z"/>
<path style="fill:#aaa8a8; stroke:none;" d="M322 209L323 210L322 209z"/>
<path style="fill:#7e7c7d; stroke:none;" d="M347 209L348 210L347 209M369 209L370 210L369 209z"/>
<path style="fill:#949293; stroke:none;" d="M370 210L371 211L370 210z"/>
<path style="fill:#868485; stroke:none;" d="M350 211L351 212L350 211z"/>
<path style="fill:#9f9d9e; stroke:none;" d="M371 211L372 212L371 211z"/>
<path style="fill:#747272; stroke:none;" d="M319.333 212.667L319.667 213.333L319.333 212.667z"/>
<path style="fill:#a8a6a7; stroke:none;" d="M372 212L373 213L372 212z"/>
<path style="fill:#a4a2a2; stroke:none;" d="M320 215L321 216L320 215z"/>
<path style="fill:#5d5a5b; stroke:none;" d="M388.333 215.667L388.667 216.333L388.333 215.667z"/>
<path style="fill:#646162; stroke:none;" d="M326.667 218.333L327.333 218.667L326.667 218.333z"/>
<path style="fill:#9e9c9c; stroke:none;" d="M333.667 220.333L334.333 220.667L333.667 220.333z"/>
<path style="fill:#a5a4a4; stroke:none;" d="M380 220L381 221L380 220z"/>
<path style="fill:#797777; stroke:none;" d="M339.667 221.333L340.333 221.667L339.667 221.333z"/>
<path style="fill:#9f9d9e; stroke:none;" d="M381 221L382 222L381 221z"/>
<path style="fill:#5c595a; stroke:none;" d="M343.667 222.333L344.333 222.667L343.667 222.333z"/>
<path style="fill:#8d8b8c; stroke:none;" d="M382 222L383 223L382 222z"/>
<path style="fill:#6c6a6a; stroke:none;" d="M346.667 223.333L347.333 223.667L346.667 223.333z"/>
<path style="fill:#7f7d7e; stroke:none;" d="M383 223L384 224L383 223z"/>
<path style="fill:#656262; stroke:none;" d="M349.667 224.333L350.333 224.667L349.667 224.333z"/>
<path style="fill:#7e7b7c; stroke:none;" d="M363 224L364 225L363 224z"/>
<path style="fill:#636061; stroke:none;" d="M391.333 224.667L391.667 225.333L391.333 224.667z"/>
<path style="fill:#9f9d9e; stroke:none;" d="M352 225L353 226L352 225z"/>
<path style="fill:#848182; stroke:none;" d="M364 225L365 226L364 225z"/>
<path style="fill:#949293; stroke:none;" d="M365 226L366 227L365 226z"/>
<path style="fill:#918f8f; stroke:none;" d="M357 227L358 228L357 227z"/>
<path style="fill:#9b999a; stroke:none;" d="M366 227L367 228L366 227z"/>
<path style="fill:#a6a5a5; stroke:none;" d="M359 228L360 229L359 228z"/>
<path style="fill:#a5a4a4; stroke:none;" d="M363 230L364 231L363 230z"/>
<path style="fill:#858384; stroke:none;" d="M389 230L390 231L389 230z"/>
<path style="fill:#918f8f; stroke:none;" d="M365 231L366 232L365 231z"/>
<path style="fill:#868485; stroke:none;" d="M393.333 231.667L393.667 232.333L393.333 231.667z"/>
<path style="fill:#6f6c6d; stroke:none;" d="M397.667 234.333L398.333 234.667L397.667 234.333z"/>
<path style="fill:#231f20; stroke:none;" d="M346 495L346 496C342.41 496.154 325.03 496.127 325.921 501.845C326.434 505.133 331.453 505.827 334 506.421C343.001 508.518 351.799 509.636 361 510.039C390.433 511.33 419.575 513.488 449 509.576C457.786 508.407 473.389 508.869 478 500L454 496C492.385 473.596 523.873 445.678 525.961 398C526.699 381.133 521.387 366.384 519.479 350C517.871 336.185 523.097 324.512 515.56 311C506.31 294.417 491.45 292.646 479 280.956C462.189 265.171 444.834 252.726 424 242.745C417.15 239.464 406.804 233.666 399 234.607C366.714 238.502 341.778 264.74 318 283.722C305.906 293.377 293.101 295.704 285.259 311C278.389 324.402 283.142 335.495 280.965 349C278.218 366.032 272.884 381.413 274.09 399C276.969 441.005 305.452 481.17 346 495z"/>
<path style="fill:#a8a6a7; stroke:none;" d="M371 235L372 236L371 235z"/>
<path style="fill:#595657; stroke:none;" d="M373 235L375 238L373 235z"/>
<path style="fill:#777575; stroke:none;" d="M393 235L393 236L396 236L393 235z"/>
<path style="fill:#918f8f; stroke:none;" d="M375 237L378 241L375 237z"/>
<path style="fill:#1e557d; stroke:none;" d="M329 283C361.508 283.269 384 308.37 384 340L417 340C417 308.909 438.43 283.09 471 283C459.761 267.055 437.625 255.116 420 247.579C413.707 244.887 406.001 240.909 399 241.133C392.475 241.343 385.882 245.061 380 247.579C362.351 255.132 340.261 267.024 329 283z"/>
<path style="fill:#918f90; stroke:none;" d="M376 242L377 243L376 242z"/>
<path style="fill:#929091; stroke:none;" d="M423 242L424 243L423 242z"/>
<path style="fill:#7b7979; stroke:none;" d="M425 243L426 244L425 243z"/>
<path style="fill:#7a7878; stroke:none;" d="M427 244L428 245L427 244z"/>
<path style="fill:#828080; stroke:none;" d="M370 245L371 246L370 245z"/>
<path style="fill:#7b7979; stroke:none;" d="M431 246L432 247L431 246M433 247L434 248L433 247z"/>
<path style="fill:#918f8f; stroke:none;" d="M364 248L365 249L364 248z"/>
<path style="fill:#828080; stroke:none;" d="M435 248L436 249L435 248z"/>
<path style="fill:#a7a5a6; stroke:none;" d="M362 249L363 250L362 249z"/>
<path style="fill:#989697; stroke:none;" d="M437 249L438 250L437 249z"/>
<path style="fill:#918f8f; stroke:none;" d="M357 252L358 253L357 252z"/>
<path style="fill:#828080; stroke:none;" d="M442 252L443 253L442 252z"/>
<path style="fill:#a7a5a6; stroke:none;" d="M352 255L353 256L352 255z"/>
<path style="fill:#989697; stroke:none;" d="M447 255L448 256L447 255z"/>
<path style="fill:#a7a5a6; stroke:none;" d="M349 257L350 258L349 257z"/>
<path style="fill:#989697; stroke:none;" d="M450 257L451 258L450 257z"/>
<path style="fill:#a7a5a6; stroke:none;" d="M346 259L347 260L346 259M453 259L454 260L453 259z"/>
<path style="fill:#929091; stroke:none;" d="M342 262L343 263L342 262z"/>
<path style="fill:#939192; stroke:none;" d="M457 262L458 263L457 262z"/>
<path style="fill:#9a9899; stroke:none;" d="M338 265L339 266L338 265z"/>
<path style="fill:#9c9a9a; stroke:none;" d="M461 265L462 266L461 265z"/>
<path style="fill:#aaa8a8; stroke:none;" d="M333 269L334 270L333 269z"/>
<path style="fill:#a4a3a3; stroke:none;" d="M466 269L467 270L466 269z"/>
<path style="fill:#918f8f; stroke:none;" d="M332 270L333 271L332 270z"/>
<path style="fill:#828080; stroke:none;" d="M467 270L468 271L467 270z"/>
<path style="fill:#7e7c7d; stroke:none;" d="M316 285L317 286L316 285z"/>
<path style="fill:#989697; stroke:none;" d="M313 286L314 287L313 286z"/>
<path style="fill:#a9a7a8; stroke:none;" d="M308 288L309 289L308 288z"/>
<path style="fill:#7e7c7d; stroke:none;" d="M326 288L326 289L337 289L326 288z"/>
<path style="fill:#848283; stroke:none;" d="M463 288L463 289L474 289L463 288z"/>
<path style="fill:#a5a4a4; stroke:none;" d="M306 289L307 290L306 289z"/>
<path style="fill:#b8b7b7; stroke:none;" d="M321.667 289.333L322.333 289.667L321.667 289.333z"/>
<path style="fill:#ffffff; stroke:none;" d="M323 289.465C316.303 290.67 309.628 293.276 304 297.094C263.191 324.78 294.105 386.497 340 378.385C344.183 377.646 353.889 376.464 355.586 371.775C357.711 365.909 354.842 361.273 359.105 355.015C363.111 349.134 375.924 345.997 377.682 339.867C386.585 308.827 350.05 284.596 323 289.465z"/>
<path style="fill:#969494; stroke:none;" d="M340.667 289.333L341.333 289.667L340.667 289.333z"/>
<path style="fill:#a6a5a5; stroke:none;" d="M458.667 289.333L459.333 289.667L458.667 289.333z"/>
<path style="fill:#ffffff; stroke:none;" d="M445 373C454.442 378.49 465.173 380.121 476 378.711C484.441 377.611 492.255 374.266 498.996 369.1C504.706 364.725 509.281 358.612 512.121 352C514.645 346.123 515 340.298 515 334C515 281.831 433.111 271.337 423.616 324C422.862 328.182 421.3 337.659 424.028 341.298C426.082 344.039 431.124 344.743 434 346.479C444.5 352.817 449.008 361.686 445 373z"/>
<path style="fill:#abaaaa; stroke:none;" d="M477 289L477 290L480 290L477 289z"/>
<path style="fill:#bfbebe; stroke:none;" d="M317.667 290.333L318.333 290.667L317.667 290.333z"/>
<path style="fill:#6b6869; stroke:none;" d="M482.667 290.333L483.333 290.667L482.667 290.333z"/>
<path style="fill:#c3c2c2; stroke:none;" d="M314.667 291.333L315.333 291.667L314.667 291.333z"/>
<path style="fill:#5b5859; stroke:none;" d="M485.667 291.333L486.333 291.667L485.667 291.333z"/>
<path style="fill:#9e9d9d; stroke:none;" d="M497 291L498 292L497 291z"/>
<path style="fill:#918f8f; stroke:none;" d="M312 292L313 293L312 292z"/>
<path style="fill:#828080; stroke:none;" d="M488 292L489 293L488 292M300 293L301 294L300 293z"/>
<path style="fill:#7e7c7d; stroke:none;" d="M447 293L448 294L447 293z"/>
<path style="fill:#8a8888; stroke:none;" d="M490 293L491 294L490 293z"/>
<path style="fill:#a4a2a2; stroke:none;" d="M308 294L309 295L308 294z"/>
<path style="fill:#797777; stroke:none;" d="M492 294L493 295L492 294z"/>
<path style="fill:#7a7878; stroke:none;" d="M501 294L502 295L501 294z"/>
<path style="fill:#9f9d9e; stroke:none;" d="M356 295L357 296L356 295z"/>
<path style="fill:#908e8e; stroke:none;" d="M442 296L443 297L442 296z"/>
<path style="fill:#a2a0a1; stroke:none;" d="M495 296L496 297L495 296z"/>
<path style="fill:#a09e9f; stroke:none;" d="M295 297L296 298L295 297z"/>
<path style="fill:#9f9d9e; stroke:none;" d="M359 297L360 298L359 297z"/>
<path style="fill:#969494; stroke:none;" d="M294 298L295 299L294 298z"/>
<path style="fill:#797777; stroke:none;" d="M498 298L499 299L498 298z"/>
<path style="fill:#a4a2a2; stroke:none;" d="M293 299L294 300L293 299z"/>
<path style="fill:#828080; stroke:none;" d="M438 299L439 300L438 299z"/>
<path style="fill:#a09e9f; stroke:none;" d="M499 299L500 300L499 299z"/>
<path style="fill:#9a9899; stroke:none;" d="M437 300L438 301L437 300z"/>
<path style="fill:#7c797a; stroke:none;" d="M364 301L365 302L364 301z"/>
<path style="fill:#7b7979; stroke:none;" d="M365 302L366 303L365 302z"/>
<path style="fill:#aaa8a8; stroke:none;" d="M434 303L435 304L434 303z"/>
<path style="fill:#8a8888; stroke:none;" d="M510 303L511 304L510 303z"/>
<path style="fill:#9e9c9c; stroke:none;" d="M433 304L434 305L433 304z"/>
<path style="fill:#838181; stroke:none;" d="M432 305L433 306L432 305z"/>
<path style="fill:#9b999a; stroke:none;" d="M505 305L506 306L505 305z"/>
<path style="fill:#7e7b7c; stroke:none;" d="M293 307L294 308L293 307z"/>
<path style="fill:#7c797a; stroke:none;" d="M370 308L371 309L370 308z"/>
<path style="fill:#8d8b8c; stroke:none;" d="M508 309L509 310L508 309z"/>
<path style="fill:#807e7e; stroke:none;" d="M514 309L515 310L514 309z"/>
<path style="fill:#9e9d9d; stroke:none;" d="M285 310L286 311L285 310z"/>
<path style="fill:#838181; stroke:none;" d="M291 310L292 311L291 310z"/>
<path style="fill:#a2a0a1; stroke:none;" d="M284 312L285 313L284 312z"/>
<path style="fill:#797777; stroke:none;" d="M373 313L374 314L373 313z"/>
<path style="fill:#787576; stroke:none;" d="M374 315L375 316L374 315z"/>
<path style="fill:#cac9ca; stroke:none;" d="M330 316L330 317L335 317L330 316z"/>
<path style="fill:#c7c6c6; stroke:none;" d="M466 316L466 317L471 317L466 316z"/>
<path style="fill:#231f20; stroke:none;" d="M327 317.653C305.49 324.396 316.484 357.761 338 350.775C359.277 343.868 348.239 310.995 327 317.653z"/>
<path style="fill:#5f5c5c; stroke:none;" d="M463.667 317.333L464.333 317.667L463.667 317.333z"/>
<path style="fill:#231f20; stroke:none;" d="M465 317.479C443.121 321.961 450.781 356.173 473 351.176C494.54 346.331 486.736 313.026 465 317.479z"/>
<path style="fill:#bab9b9; stroke:none;" d="M473.667 317.333L474.333 317.667L473.667 317.333z"/>
<path style="fill:#aaa9a9; stroke:none;" d="M324 318L325 319L324 318z"/>
<path style="fill:#959393; stroke:none;" d="M476 318L477 319L476 318z"/>
<path style="fill:#7c797a; stroke:none;" d="M459 319L460 320L459 319z"/>
<path style="fill:#5f5c5d; stroke:none;" d="M281.333 320.667L281.667 321.333L281.333 320.667z"/>
<path style="fill:#999798; stroke:none;" d="M321 320L322 321L321 320z"/>
<path style="fill:#28525e; stroke:none;" d="M326 321L326 322C336.242 329.479 326.531 334.695 318 336C318.539 338.975 319.361 341.541 321.394 343.892C337.527 362.543 360.409 326.43 336 320.533C332.593 319.71 329.341 320.205 326 321z"/>
<path style="fill:#acabab; stroke:none;" d="M376.333 320.667L376.667 321.333L376.333 320.667z"/>
<path style="fill:#28525e; stroke:none;" d="M462 321L462 322C469.804 326.152 468.436 334.735 459 333L455 337C461.208 368.993 503.294 328.091 472 320.533C468.592 319.71 465.341 320.205 462 321z"/>
<path style="fill:#787576; stroke:none;" d="M479 320L480 321L479 320z"/>
<path style="fill:#afadae; stroke:none;" d="M286.333 321.667L286.667 322.333L286.333 321.667z"/>
<path style="fill:#7c797a; stroke:none;" d="M320 321L321 322L320 321z"/>
<path style="fill:#a4a2a2; stroke:none;" d="M344 321L345 322L344 321z"/>
<path style="fill:#6c6a6a; stroke:none;" d="M519.333 321.667L519.667 322.333L519.333 321.667z"/>
<path style="fill:#7e7c7d; stroke:none;" d="M319 322L320 323L319 322z"/>
<path style="fill:#7d969d; stroke:none;" d="M324 322L324 323L328 323L324 322z"/>
<path style="fill:#a9a7a8; stroke:none;" d="M345 322L346 323L345 322z"/>
<path style="fill:#7f989f; stroke:none;" d="M461 322L461 323L464 323L461 322z"/>
<path style="fill:#a4a3a3; stroke:none;" d="M514.333 322.667L514.667 323.333L514.333 322.667z"/>
<path style="fill:#9f9d9e; stroke:none;" d="M280 323L280 326L281 326L280 323z"/>
<path style="fill:#9e9d9d; stroke:none;" d="M318 323L319 324L318 323z"/>
<path style="fill:#f9f9fa; stroke:none;" d="M321 332L318 332L318 336L322 333C323.242 333.281 324.712 333.822 326.025 333.674C338.091 332.311 324.489 315.865 321.318 327.034C320.872 328.604 321.019 330.392 321 332z"/>
<path style="fill:#c4c3c4; stroke:none;" d="M423.333 323.667L423.667 324.333L423.333 323.667z"/>
<path style="fill:#f9f9fa; stroke:none;" d="M458 332C454.946 332.654 455.064 334.007 455 337L459 333C463.876 334.327 471.902 330.138 466.396 324.603C460.796 318.975 456.656 327.053 458 332z"/>
<path style="fill:#74787a; stroke:none;" d="M321 324L322 325L321 324z"/>
<path style="fill:#a9a7a8; stroke:none;" d="M377 324L377 327L378 327L377 324z"/>
<path style="fill:#949293; stroke:none;" d="M285.333 325.667L285.667 326.333L285.333 325.667z"/>
<path style="fill:#7e7b7c; stroke:none;" d="M347 325L348 326L347 325z"/>
<path style="fill:#a9a7a8; stroke:none;" d="M453 325L454 326L453 325z"/>
<path style="fill:#849197; stroke:none;" d="M457 325L458 326L457 325z"/>
<path style="fill:#a09e9f; stroke:none;" d="M520 325L520 328L521 328L520 325z"/>
<path style="fill:#ced7da; stroke:none;" d="M320 326L320 330L321 330L320 326z"/>
<path style="fill:#b2c1c6; stroke:none;" d="M331 326L331 330L332 330L331 326z"/>
<path style="fill:#8b898a; stroke:none;" d="M484 326L485 327L484 326z"/>
<path style="fill:#726f70; stroke:none;" d="M515.333 326.667L515.667 327.333L515.333 326.667z"/>
<path style="fill:#b0aeaf; stroke:none;" d="M422 327L422 339L423 339L422 327z"/>
<path style="fill:#a9a7a8; stroke:none;" d="M452 327L453 328L452 327z"/>
<path style="fill:#28525e; stroke:none;" d="M456 327L455 332L456 332L456 327z"/>
<path style="fill:#79929a; stroke:none;" d="M468 327L468 330L469 330L468 327z"/>
<path style="fill:#284851; stroke:none;" d="M319 328L318 332L319 332L319 328z"/>
<path style="fill:#656363; stroke:none;" d="M485.333 328.667L485.667 329.333L485.333 328.667z"/>
<path style="fill:#d6d5d5; stroke:none;" d="M515 328L515 339L516 339L515 328z"/>
<path style="fill:#b2b1b1; stroke:none;" d="M279 329L279 339L280 339L279 329z"/>
<path style="fill:#595657; stroke:none;" d="M315.333 329.667L315.667 330.333L315.333 329.667z"/>
<path style="fill:#848283; stroke:none;" d="M349.333 329.667L349.667 330.333L349.333 329.667z"/>
<path style="fill:#767374; stroke:none;" d="M378 329L378 339L379 339L378 329z"/>
<path style="fill:#67838d; stroke:none;" d="M320 330L319 332L321 332L320 330z"/>
<path style="fill:#5a5758; stroke:none;" d="M451 330L451 337L452 337L451 330z"/>
<path style="fill:#484546; stroke:none;" d="M284 331L284 335L285 335L284 331z"/>
<path style="fill:#829aa0; stroke:none;" d="M456.667 331.333L457.333 331.667L456.667 331.333z"/>
<path style="fill:#b2b1b1; stroke:none;" d="M486 332L486 337L487 337L486 332z"/>
<path style="fill:#757375; stroke:none;" d="M317.333 333.667L317.667 334.333L317.333 333.667z"/>
<path style="fill:#a6b6bc; stroke:none;" d="M322 333L322 335L324 333L322 333z"/>
<path style="fill:#c0c8ca; stroke:none;" d="M454 333L454 336L455 336L454 333z"/>
<path style="fill:#bdc9cd; stroke:none;" d="M319.667 336.333L320.333 336.667L319.667 336.333z"/>
<path style="fill:#959393; stroke:none;" d="M349.333 337.667L349.667 338.333L349.333 337.667z"/>
<path style="fill:#c1c0c0; stroke:none;" d="M451.333 337.667L451.667 338.333L451.333 337.667z"/>
<path style="fill:#a4a3a3; stroke:none;" d="M315.333 338.667L315.667 339.333L315.333 338.667z"/>
<path style="fill:#b5b3b4; stroke:none;" d="M285.333 339.667L285.667 340.333L285.333 339.667z"/>
<path style="fill:#565354; stroke:none;" d="M422.333 339.667L422.667 340.333L422.333 339.667z"/>
<path style="fill:#c5c4c4; stroke:none;" d="M485.333 339.667L485.667 340.333L485.333 339.667z"/>
<path style="fill:#6f6c6d; stroke:none;" d="M515.333 339.667L515.667 340.333L515.333 339.667z"/>
<path style="fill:#a3a1a1; stroke:none;" d="M520 340L520 343L521 343L520 340z"/>
<path style="fill:#7f7d7e; stroke:none;" d="M280 341L280 344L281 344L280 341z"/>
<path style="fill:#706d6e; stroke:none;" d="M285.333 341.667L285.667 342.333L285.333 341.667z"/>
<path style="fill:#989697; stroke:none;" d="M348 341L349 342L348 341z"/>
<path style="fill:#ef9f1d; stroke:none;" d="M361 366L361 367C355.37 373.217 375.457 382.439 380 383.715C399.832 389.282 433.782 388.461 444 367L400 375.946L361 368L361 367C390.457 370.726 414.744 369.778 444 366C443.824 355.55 435.167 349.274 426 346.028C409.312 340.118 386.911 339.779 371 348.25C367.552 350.086 351.613 363.989 361 366z"/>
<path style="fill:#787576; stroke:none;" d="M317 343L318 344L317 343z"/>
<path style="fill:#a4a3a3; stroke:none;" d="M347 343L348 344L347 343z"/>
<path style="fill:#835b1f; stroke:none;" d="M384 343L384 344L387 344L384 343z"/>
<path style="fill:#96671e; stroke:none;" d="M415 343L415 344L418 344L415 343z"/>
<path style="fill:#8f631e; stroke:none;" d="M380.667 344.333L381.333 344.667L380.667 344.333z"/>
<path style="fill:#76521f; stroke:none;" d="M420.667 344.333L421.333 344.667L420.667 344.333z"/>
<path style="fill:#858384; stroke:none;" d="M430 344L431 345L430 344z"/>
<path style="fill:#838181; stroke:none;" d="M454 344L455 345L454 344z"/>
<path style="fill:#656363; stroke:none;" d="M514.333 344.667L514.667 345.333L514.333 344.667z"/>
<path style="fill:#726f70; stroke:none;" d="M286.333 345.667L286.667 346.333L286.333 345.667z"/>
<path style="fill:#7f7d7e; stroke:none;" d="M432 345L433 346L432 345z"/>
<path style="fill:#a6a5a5; stroke:none;" d="M482 345L483 346L482 345z"/>
<path style="fill:#aaa9a9; stroke:none;" d="M519.333 345.667L519.667 346.333L519.333 345.667z"/>
<path style="fill:#7a7878; stroke:none;" d="M281 346L281 349L282 349L281 346z"/>
<path style="fill:#918f8f; stroke:none;" d="M434 346L435 347L434 346z"/>
<path style="fill:#8c8a8b; stroke:none;" d="M481 346L482 347L481 346z"/>
<path style="fill:#858384; stroke:none;" d="M366 347L367 348L366 347z"/>
<path style="fill:#939192; stroke:none;" d="M480 347L481 348L480 347z"/>
<path style="fill:#918f8f; stroke:none;" d="M437 348L438 349L437 348z"/>
<path style="fill:#878585; stroke:none;" d="M323 349L324 350L323 349z"/>
<path style="fill:#a3a1a1; stroke:none;" d="M341 349L342 350L341 349z"/>
<path style="fill:#969494; stroke:none;" d="M339 350L340 351L339 350z"/>
<path style="fill:#a3a1a1; stroke:none;" d="M362 350L363 351L362 350z"/>
<path style="fill:#aaa8a8; stroke:none;" d="M461 350L462 351L461 350z"/>
<path style="fill:#a09e9f; stroke:none;" d="M288 351L289 352L288 351z"/>
<path style="fill:#888686; stroke:none;" d="M327.667 351.333L328.333 351.667L327.667 351.333z"/>
<path style="fill:#929091; stroke:none;" d="M335.667 351.333L336.333 351.667L335.667 351.333z"/>
<path style="fill:#989697; stroke:none;" d="M361 351L362 352L361 351z"/>
<path style="fill:#6b6969; stroke:none;" d="M464.667 351.333L465.333 351.667L464.667 351.333z"/>
<path style="fill:#7e7b7c; stroke:none;" d="M471 351L471 352L474 352L471 351z"/>
<path style="fill:#a5a4a4; stroke:none;" d="M360 352L361 353L360 352z"/>
<path style="fill:#a9a7a8; stroke:none;" d="M289 353L290 354L289 353z"/>
<path style="fill:#7d7a7b; stroke:none;" d="M279.333 354.667L279.667 355.333L279.333 354.667z"/>
<path style="fill:#929091; stroke:none;" d="M443 354L444 355L443 354z"/>
<path style="fill:#5c595a; stroke:none;" d="M520.333 354.667L520.667 355.333L520.333 354.667z"/>
<path style="fill:#aaa8a8; stroke:none;" d="M290 355L291 356L290 355z"/>
<path style="fill:#dd225d; stroke:none;" d="M284 356C278.427 375.839 294.806 415.422 314 424C321.07 411.841 322.998 397.864 323 384C304.372 380.145 296.714 368.316 284 356z"/>
<path style="fill:#787677; stroke:none;" d="M291 357L292 358L291 357z"/>
<path style="fill:#dd225d; stroke:none;" d="M515 357C506.724 371.524 493.817 379.772 478 384C478 398.463 479.573 412.227 487 425C503.85 417.861 510.677 394.888 515.745 379C517.897 372.25 520.399 362.762 515 357z"/>
<path style="fill:#777475; stroke:none;" d="M278.333 358.667L278.667 359.333L278.333 358.667z"/>
<path style="fill:#848182; stroke:none;" d="M508 358L509 359L508 358z"/>
<path style="fill:#a3a1a1; stroke:none;" d="M294 361L295 362L294 361z"/>
<path style="fill:#686566; stroke:none;" d="M355.333 361.667L355.667 362.333L355.333 361.667z"/>
<path style="fill:#8f8d8d; stroke:none;" d="M277.333 362.667L277.667 363.333L277.333 362.667M505 362L506 363L505 362z"/>
<path style="fill:#6f6d6d; stroke:none;" d="M522.333 362.667L522.667 363.333L522.333 362.667z"/>
<path style="fill:#73511e; stroke:none;" d="M444 363L440 366L440 367L445 367L444 363z"/>
<path style="fill:#524f50; stroke:none;" d="M447 363L447 368L448 368L447 363z"/>
<path style="fill:#a72a4d; stroke:none;" d="M518 364C517.986 384.954 505.03 413.714 487 425C489.676 429.801 500.697 447.098 507.61 443.839C512.377 441.591 514.487 430.576 515.999 426C521.81 408.41 527.332 381.424 518 364z"/>
<path style="fill:#c1c0c0; stroke:none;" d="M354.333 365.667L354.667 366.333L354.333 365.667z"/>
<path style="fill:#a72a4d; stroke:none;" d="M282 366C275.334 383.8 279.03 406.354 284.435 424C285.984 429.057 288.327 438.977 292.638 442.342C299.411 447.628 311.753 428.723 314 424C292.292 409.601 292.935 386.417 282 366z"/>
<path style="fill:#66491f; stroke:none;" d="M358 368L361 367L358 368z"/>
<path style="fill:#716e6f; stroke:none;" d="M276.333 367.667L276.667 368.333L276.333 367.667z"/>
<path style="fill:#231f20; stroke:none;" d="M361 367L361 368C388.205 376.852 413.839 376.838 441 368L406 371.91L361 367z"/>
<path style="fill:#8f631e; stroke:none;" d="M435 367L435 368L438 368L435 367z"/>
<path style="fill:#5d5a5b; stroke:none;" d="M523.333 367.667L523.667 368.333L523.333 367.667z"/>
<path style="fill:#979696; stroke:none;" d="M355 368L356 369L355 368z"/>
<path style="fill:#80591e; stroke:none;" d="M369 368L369 369L372 369L369 368z"/>
<path style="fill:#92651f; stroke:none;" d="M430 368L430 369L433 369L430 368z"/>
<path style="fill:#918f8f; stroke:none;" d="M499 368L500 369L499 368z"/>
<path style="fill:#9c9a9a; stroke:none;" d="M302 369L303 370L302 369z"/>
<path style="fill:#b3791d; stroke:none;" d="M375 369L375 370L379 370L375 369z"/>
<path style="fill:#a09e9f; stroke:none;" d="M446 369L447 370L446 369z"/>
<path style="fill:#aaa8a8; stroke:none;" d="M356 370L357 371L356 370z"/>
<path style="fill:#8b601f; stroke:none;" d="M382 370L382 371L387 371L382 370z"/>
<path style="fill:#694a1f; stroke:none;" d="M416 370L416 371L421 371L416 370z"/>
<path style="fill:#9b999a; stroke:none;" d="M275.333 371.667L275.667 372.333L275.333 371.667z"/>
<path style="fill:#5a411f; stroke:none;" d="M393 371L393 372L410 372L393 371z"/>
<path style="fill:#918f8f; stroke:none;" d="M495 371L496 372L495 371z"/>
<path style="fill:#9e9d9d; stroke:none;" d="M524.333 371.667L524.667 372.333L524.333 371.667z"/>
<path style="fill:#918f8f; stroke:none;" d="M356 372L357 373L356 372z"/>
<path style="fill:#7a561e; stroke:none;" d="M375.667 372.333L376.333 372.667L375.667 372.333z"/>
<path style="fill:#875e1e; stroke:none;" d="M425.667 372.333L426.333 372.667L425.667 372.333z"/>
<path style="fill:#918f90; stroke:none;" d="M308 373L309 374L308 373z"/>
<path style="fill:#97671e; stroke:none;" d="M379 373L379 374L382 374L379 373z"/>
<path style="fill:#74521e; stroke:none;" d="M420 373L420 374L423 374L420 373z"/>
<path style="fill:#918f8f; stroke:none;" d="M310 374L311 375L310 374z"/>
<path style="fill:#63471f; stroke:none;" d="M385 374L385 375L390 375L385 374z"/>
<path style="fill:#828080; stroke:none;" d="M490 374L491 375L490 374z"/>
<path style="fill:#8d8b8c; stroke:none;" d="M312 375L313 376L312 375z"/>
<path style="fill:#a6a5a5; stroke:none;" d="M350 375L351 376L350 375z"/>
<path style="fill:#9d6b1e; stroke:none;" d="M395 375L395 376L406 376L395 375z"/>
<path style="fill:#1e557d; stroke:none;" d="M327 385C327 401.361 323.683 417.508 313.841 431C310.664 435.355 296.621 444.61 298.288 450.015C299.836 455.036 305.425 459.425 309 463C319.016 473.016 330.339 480.916 343 487.247C359.045 495.27 379.793 504.369 398 504.957C407.529 505.264 416.963 501.713 426 499.14C455.256 490.813 488.379 474.416 504 447C483.131 432.746 473.003 409.881 473 385C466.131 384.999 459.538 384.431 453 382.135C449.451 380.889 444.833 377.352 441 377.838C436.57 378.399 432.179 382.843 428 384.546C417.879 388.67 405.912 390.886 395 389.83C387.225 389.078 378.981 387.197 372 383.626C368.311 381.739 364.333 377.005 360 377.07C349.273 377.232 338.783 384.999 327 385z"/>
<path style="fill:#565354; stroke:none;" d="M485.667 376.333L486.333 376.667L485.667 376.333z"/>
<path style="fill:#7d7a7b; stroke:none;" d="M274 377L274 381L275 381L274 377z"/>
<path style="fill:#afadae; stroke:none;" d="M317.667 377.333L318.333 377.667L317.667 377.333z"/>
<path style="fill:#828080; stroke:none;" d="M344.667 377.333L345.333 377.667L344.667 377.333z"/>
<path style="fill:#595657; stroke:none;" d="M482.667 377.333L483.333 377.667L482.667 377.333z"/>
<path style="fill:#807e7e; stroke:none;" d="M525 377L525 382L526 382L525 377z"/>
<path style="fill:#aaa8a8; stroke:none;" d="M321 378L321 379L324 379L321 378z"/>
<path style="fill:#b2b1b1; stroke:none;" d="M339 378L339 379L342 379L339 378z"/>
<path style="fill:#979595; stroke:none;" d="M458.667 378.333L459.333 378.667L458.667 378.333z"/>
<path style="fill:#9c9a9a; stroke:none;" d="M477 378L477 379L480 379L477 378z"/>
<path style="fill:#706d6e; stroke:none;" d="M326 379L326 380L337 380L326 379z"/>
<path style="fill:#767374; stroke:none;" d="M463 379L463 380L474 380L463 379z"/>
<path style="fill:#203b50; stroke:none;" d="M327 384L327 385L338 385L327 384z"/>
<path style="fill:#93651e; stroke:none;" d="M382.667 384.333L383.333 384.667L382.667 384.333z"/>
<path style="fill:#7a561e; stroke:none;" d="M418.667 384.333L419.333 384.667L418.667 384.333z"/>
<path style="fill:#203f58; stroke:none;" d="M462 384L462 385L473 385L473 396L474 396L474 384L462 384z"/>
<path style="fill:#845c1f; stroke:none;" d="M393 386L393 387L408 387L393 386z"/>
<path style="fill:#213545; stroke:none;" d="M392 389L392 390L409 390L392 389z"/>
<path style="fill:#622035; stroke:none;" d="M322 394L322 399L323 399L322 394z"/>
<path style="fill:#828080; stroke:none;" d="M274 402L274 405L275 405L274 402z"/>
<path style="fill:#848283; stroke:none;" d="M525 402L525 405L526 405L525 402z"/>
<path style="fill:#81203f; stroke:none;" d="M479 404L479 407L480 407L479 404z"/>
<path style="fill:#737171; stroke:none;" d="M275 409L275 412L276 412L275 409z"/>
<path style="fill:#777475; stroke:none;" d="M524 409L524 412L525 412L524 409z"/>
<path style="fill:#a09e9f; stroke:none;" d="M276 415L276 418L277 418L276 415z"/>
<path style="fill:#a2a0a1; stroke:none;" d="M523.333 415.667L523.667 416.333L523.333 415.667M277.333 419.667L277.667 420.333L277.333 419.667z"/>
<path style="fill:#a5a4a4; stroke:none;" d="M522.333 419.667L522.667 420.333L522.333 419.667z"/>
<path style="fill:#b7b6b6; stroke:none;" d="M278.333 423.667L278.667 424.333L278.333 423.667z"/>
<path style="fill:#bbbaba; stroke:none;" d="M521.333 423.667L521.667 424.333L521.333 423.667z"/>
<path style="fill:#b7b5b6; stroke:none;" d="M520.333 426.667L520.667 427.333L520.333 426.667z"/>
<path style="fill:#8f8d8d; stroke:none;" d="M281 432L282 433L281 432z"/>
<path style="fill:#918f8f; stroke:none;" d="M518 432L519 433L518 432z"/>
<path style="fill:#7b7979; stroke:none;" d="M288 446L289 447L288 446z"/>
<path style="fill:#7e7b7c; stroke:none;" d="M511 446L512 447L511 446z"/>
<path style="fill:#a8a6a7; stroke:none;" d="M291 451L292 452L291 451z"/>
<path style="fill:#828080; stroke:none;" d="M294 455L295 456L294 455z"/>
<path style="fill:#848283; stroke:none;" d="M505 455L506 456L505 455z"/>
<path style="fill:#918f8f; stroke:none;" d="M297 459L298 460L297 459z"/>
<path style="fill:#939192; stroke:none;" d="M502 459L503 460L502 459z"/>
<path style="fill:#7a7878; stroke:none;" d="M312 474L313 475L312 474z"/>
<path style="fill:#7d7a7b; stroke:none;" d="M487 474L488 475L487 474z"/>
<path style="fill:#a7a5a6; stroke:none;" d="M313 475L314 476L313 475z"/>
<path style="fill:#9f9d9e; stroke:none;" d="M486 475L487 476L486 475z"/>
<path style="fill:#848283; stroke:none;" d="M317 478L318 479L317 478z"/>
<path style="fill:#878585; stroke:none;" d="M482 478L483 479L482 478z"/>
<path style="fill:#a7a5a6; stroke:none;" d="M321 481L322 482L321 481z"/>
<path style="fill:#989697; stroke:none;" d="M478 481L479 482L478 481z"/>
<path style="fill:#8d8b8c; stroke:none;" d="M324 483L325 484L324 483z"/>
<path style="fill:#8f8d8d; stroke:none;" d="M475 483L476 484L475 483z"/>
<path style="fill:#9f9d9e; stroke:none;" d="M472 485L473 486L472 485z"/>
<path style="fill:#a7a5a6; stroke:none;" d="M332 488L333 489L332 488z"/>
<path style="fill:#989697; stroke:none;" d="M467 488L468 489L467 488z"/>
<path style="fill:#8e8c8c; stroke:none;" d="M334 489L335 490L334 489z"/>
<path style="fill:#8f8d8d; stroke:none;" d="M465 489L466 490L465 489z"/>
<path style="fill:#828080; stroke:none;" d="M336 490L337 491L336 490M344 494L345 495L344 494z"/>
<path style="fill:#c4c3c4; stroke:none;" d="M454 495L454 496L458 496L454 495z"/>
<path style="fill:#bbbaba; stroke:none;" d="M335.667 496.333L336.333 496.667L335.667 496.333z"/>
<path style="fill:#565354; stroke:none;" d="M337 496L337 497L341 497L337 496z"/>
<path style="fill:#918f8f; stroke:none;" d="M463.667 496.333L464.333 496.667L463.667 496.333z"/>
<path style="fill:#c9c8c8; stroke:none;" d="M465.667 496.333L466.333 496.667L465.667 496.333z"/>
<path style="fill:#8e8c8c; stroke:none;" d="M330.667 497.333L331.333 497.667L330.667 497.333z"/>
<path style="fill:#a4a3a3; stroke:none;" d="M470.667 497.333L471.333 497.667L470.667 497.333z"/>
<path style="fill:#7e7c7d; stroke:none;" d="M325 499L326 500L325 499z"/>
<path style="fill:#848283; stroke:none;" d="M324.333 500.667L324.667 501.333L324.333 500.667z"/>
<path style="fill:#9e9d9d; stroke:none;" d="M477 502L478 503L477 502z"/>
<path style="fill:#939192; stroke:none;" d="M474 504L475 505L474 504z"/>
<path style="fill:#696667; stroke:none;" d="M333.667 506.333L334.333 506.667L333.667 506.333z"/>
<path style="fill:#c8c7c7; stroke:none;" d="M468.667 506.333L469.333 506.667L468.667 506.333z"/>
<path style="fill:#8a8888; stroke:none;" d="M337.667 507.333L338.333 507.667L337.667 507.333z"/>
<path style="fill:#918f8f; stroke:none;" d="M463 507L463 508L466 508L463 507z"/>
<path style="fill:#979696; stroke:none;" d="M342 508L342 509L345 509L342 508z"/>
<path style="fill:#878585; stroke:none;" d="M457 508L457 509L460 509L457 508z"/>
<path style="fill:#b6b4b5; stroke:none;" d="M348 509L348 510L351 510L348 509z"/>
<path style="fill:#727070; stroke:none;" d="M449.667 509.333L450.333 509.667L449.667 509.333z"/>
<path style="fill:#a9a7a8; stroke:none;" d="M451 509L451 510L454 510L451 509z"/>
<path style="fill:#cbcacb; stroke:none;" d="M357 510L357 511L360 511L357 510z"/>
<path style="fill:#918f8f; stroke:none;" d="M360 510L360 511L363 511L360 510z"/>
<path style="fill:#565354; stroke:none;" d="M363 510L363 511L366 511L363 510z"/>
<path style="fill:#656262; stroke:none;" d="M438 510L438 511L441 511L438 510z"/>
<path style="fill:#9f9d9e; stroke:none;" d="M441 510L441 511L444 511L441 510z"/>
<path style="fill:#aaa8a8; stroke:none;" d="M368 511L368 512L377 512L368 511z"/>
<path style="fill:#7e7b7c; stroke:none;" d="M423 511L423 512L428 512L423 511z"/>
<path style="fill:#cac9c9; stroke:none;" d="M428 511L428 512L434 512L428 511z"/>
<path style="fill:#d1d0d1; stroke:none;" d="M385 512L385 513L390 513L385 512z"/>
<path style="fill:#adacac; stroke:none;" d="M390 512L390 513L397 513L390 512z"/>
<path style="fill:#706d6e; stroke:none;" d="M397 512L397 513L406 513L397 512z"/>
<path style="fill:#b7b6b6; stroke:none;" d="M406 512L406 513L414 513L406 512z"/>
<path style="fill:#484848; stroke:none;" d="M580 530L580 531L585 531L580 530z"/>
<path style="fill:#202020; stroke:none;" d="M578 558C567.467 554.161 553.933 554.534 546.533 564.015C534.898 578.923 544.288 603.945 564 603.921C569.853 603.914 574.815 601.342 580 599C582.284 603.139 589.537 604.354 589.718 597.956C589.854 593.182 586.068 589.065 586.005 584C585.854 571.754 587 559.325 587 547C587 543.154 588.368 535.811 585.821 532.603C583.718 529.955 579.227 531.085 578.318 534.148C576.265 541.063 578 550.793 578 558z"/>
<path style="fill:#5b5b5b; stroke:none;" d="M443 534L443 535L458 535L443 534z"/>
<path style="fill:#9b9b9b; stroke:none;" d="M236.667 535.333L237.333 535.667L236.667 535.333z"/>
<path style="fill:#454545; stroke:none;" d="M238 535L238 536L248 536L238 535z"/>
<path style="fill:#5b5b5b; stroke:none;" d="M440.667 535.333L441.333 535.667L440.667 535.333z"/>
<path style="fill:#202020; stroke:none;" d="M468 568C473.955 561.588 478.486 555.267 474.852 546C470.364 534.557 446.716 530.04 437.228 537.703C430.38 543.234 433 558.257 433 566C433 575.106 430.376 589.695 435.314 597.811C440.537 606.396 458.253 603.222 466 600.451C479.723 595.544 485.942 571.622 468 568z"/>
<path style="fill:#9a9a9a; stroke:none;" d="M461.667 535.333L462.333 535.667L461.667 535.333z"/>
<path style="fill:#4e4e4e; stroke:none;" d="M490 535L490 536L495 536L490 535z"/>
<path style="fill:#545454; stroke:none;" d="M233.667 536.333L234.333 536.667L233.667 536.333z"/>
<path style="fill:#202020; stroke:none;" d="M235 536.468C195.266 543.979 213.115 621.734 255.996 601.08C258.848 599.707 266.803 592.208 260.681 589.647C256.965 588.092 252.338 591.875 249 593.034C242.469 595.301 235.201 593.543 230.329 588.671C218.839 577.182 220.788 551.021 238 545.653C244.078 543.757 253.493 550.856 258.396 546.971C262.197 543.96 257.801 539.314 254.981 537.839C249.52 534.985 240.934 535.346 235 536.468z"/>
<path style="fill:#8e8e8e; stroke:none;" d="M438 536L439 537L438 536z"/>
<path style="fill:#202020; stroke:none;" d="M489.319 537.029C484.373 540.308 489.525 548.854 494.853 545.953C501.341 542.42 495.461 532.955 489.319 537.029z"/>
<path style="fill:#989898; stroke:none;" d="M577 536L577 558L578 558L577 536z"/>
<path style="fill:#7e7e7e; stroke:none;" d="M254 537L255 538L254 537z"/>
<path style="fill:#909090; stroke:none;" d="M467 537L468 538L467 537z"/>
<path style="fill:#8c8c8c; stroke:none;" d="M256 538L257 539L256 538z"/>
<path style="fill:#4c4c4c; stroke:none;" d="M334 539L334 540L338 540L334 539z"/>
<path style="fill:#929292; stroke:none;" d="M470 539L471 540L470 539z"/>
<path style="fill:#888888; stroke:none;" d="M498 539L498 543L499 543L498 539z"/>
<path style="fill:#202020; stroke:none;" d="M333 540L332 556C318.192 556 318.368 563.999 332 564C332 573.666 331.95 583.334 332.001 593C332.017 596.143 331.668 602.003 336 602.534C340.411 603.075 339.985 596.738 339.999 594C340.052 583.972 341 574.057 341 564C354.632 563.999 354.808 556 341 556C341 548.796 342.178 540.305 333 540z"/>
<path style="fill:#7a7a7a; stroke:none;" d="M471 540L472 541L471 540z"/>
<path style="fill:#a1a1a1; stroke:none;" d="M224 541L225 542L224 541z"/>
<path style="fill:#6e6e6e; stroke:none;" d="M332.333 541.667L332.667 542.333L332.333 541.667z"/>
<path style="fill:#909090; stroke:none;" d="M339 541L340 542L339 541z"/>
<path style="fill:#8c8c8c; stroke:none;" d="M472 541L473 542L472 541z"/>
<path style="fill:#828282; stroke:none;" d="M223 542L224 543L223 542z"/>
<path style="fill:#858585; stroke:none;" d="M222 543L223 544L222 543z"/>
<path style="fill:#8f8f8f; stroke:none;" d="M340.333 543.667L340.667 544.333L340.333 543.667z"/>
<path style="fill:#9c9c9c; stroke:none;" d="M447.667 543.333L448.333 543.667L447.667 543.333z"/>
<path style="fill:#ffffff; stroke:none;" d="M443 564C446.704 564 450.333 564 454 563.409C456.365 563.028 458.835 562.676 460.981 561.544C477.644 552.751 451.86 534.183 444.028 546.303C441.329 550.48 443 559.178 443 564z"/>
<path style="fill:#7a7a7a; stroke:none;" d="M456 543L456 544L459 544L456 543z"/>
<path style="fill:#7d7d7d; stroke:none;" d="M487 543L488 544L487 543z"/>
<path style="fill:#8f8f8f; stroke:none;" d="M221 544L222 545L221 544z"/>
<path style="fill:#8c8c8c; stroke:none;" d="M433.333 544.667L433.667 545.333L433.333 544.667z"/>
<path style="fill:#a0a0a0; stroke:none;" d="M460 544L461 545L460 544z"/>
<path style="fill:#929292; stroke:none;" d="M474 544L475 545L474 544z"/>
<path style="fill:#9a9a9a; stroke:none;" d="M497 544L498 545L497 544z"/>
<path style="fill:#a7a7a7; stroke:none;" d="M237.667 545.333L238.333 545.667L237.667 545.333z"/>
<path style="fill:#d0d0d0; stroke:none;" d="M239 545L239 546L245 546L239 545z"/>
<path style="fill:#7d7d7d; stroke:none;" d="M245.667 545.333L246.333 545.667L245.667 545.333z"/>
<path style="fill:#bdbdbd; stroke:none;" d="M331 545L331 555L332 555L331 545z"/>
<path style="fill:#9a9a9a; stroke:none;" d="M462 545L463 546L462 545z"/>
<path style="fill:#8c8c8c; stroke:none;" d="M496 545L497 546L496 545z"/>
<path style="fill:#777777; stroke:none;" d="M475.333 546.667L475.667 547.333L475.333 546.667z"/>
<path style="fill:#a0a0a0; stroke:none;" d="M233 547L234 548L233 547z"/>
<path style="fill:#989898; stroke:none;" d="M218 548L219 549L218 548z"/>
<path style="fill:#9b9b9b; stroke:none;" d="M254 548L254 549L258 549L254 548z"/>
<path style="fill:#6f6f6f; stroke:none;" d="M442 548L442 564L443 564L442 548z"/>
<path style="fill:#8a8a8a; stroke:none;" d="M465 548L466 549L465 548z"/>
<path style="fill:#cbcbcb; stroke:none;" d="M466 550L466 556L467 556L466 550z"/>
<path style="fill:#c7c7c7; stroke:none;" d="M476 550L476 555L477 555L476 550z"/>
<path style="fill:#b9b9b9; stroke:none;" d="M432 552L432 582L433 582L432 552z"/>
<path style="fill:#202020; stroke:none;" d="M518 562C517.986 558.105 514.99 547.101 510.318 555.149C505.379 563.657 508.594 584.281 509.039 594C509.19 597.283 510.501 605.193 515.687 601.953C522.483 597.706 517.019 578.762 519.742 572.043C522.63 564.92 531.197 567.472 535.396 562.567C539.363 557.934 534.473 554.695 529.999 555.113C525.117 555.571 521.823 559.342 518 562z"/>
<path style="fill:#858585; stroke:none;" d="M227 553L228 554L227 553z"/>
<path style="fill:#a7a7a7; stroke:none;" d="M510 553L511 554L510 553z"/>
<path style="fill:#9b9b9b; stroke:none;" d="M215 554L216 555L215 554z"/>
<path style="fill:#b2b2b2; stroke:none;" d="M274 554L274 555L277 555L274 554M306 554L306 555L309 555L306 554z"/>
<path style="fill:#afafaf; stroke:none;" d="M379 554L379 555L387 555L379 554z"/>
<path style="fill:#b3b3b3; stroke:none;" d="M529 554L529 555L534 555L529 554z"/>
<path style="fill:#202020; stroke:none;" d="M273.317 556.047C269.147 558.613 270.993 568.841 271 573C271.026 589.265 280.555 612.562 300.985 601.558C312.211 595.512 312 578.948 312 568C312 564.369 313.294 554.754 307.114 555.466C302.562 555.991 303.017 562.76 303.001 566C302.962 573.961 303.878 595.576 291.001 594.663C278.061 593.745 280.158 571.622 279.995 563C279.93 559.539 278.334 552.961 273.317 556.047z"/>
<path style="fill:#7c7c7c; stroke:none;" d="M322.667 555.333L323.333 555.667L322.667 555.333z"/>
<path style="fill:#3e3e3e; stroke:none;" d="M324 555L324 556L332 556L324 555M341 555L341 556L350 556L341 555z"/>
<path style="fill:#676767; stroke:none;" d="M375.667 555.333L376.333 555.667L375.667 555.333z"/>
<path style="fill:#202020; stroke:none;" d="M369 583C378.03 584.682 389.531 587.034 397.956 581.911C407.623 576.031 402.963 560.862 393.999 556.995C368.015 545.784 344.97 580.483 367.015 598.657C374.11 604.505 384.399 604.892 393 602.985C396.076 602.302 404.494 599.367 400.953 594.606C398.342 591.097 390.357 595.056 387 595.497C378.42 596.623 371.347 590.902 369 583z"/>
<path style="fill:#878787; stroke:none;" d="M388 555L388 556L391 556L388 555z"/>
<path style="fill:#898989; stroke:none;" d="M490 555L491 556L490 555z"/>
<path style="fill:#202020; stroke:none;" d="M491.299 556.086C488.619 557.632 488.434 562.287 488.17 565C487.305 573.89 487.244 584.151 488.424 593C488.768 595.576 489.426 605.069 494.441 601.914C497.263 600.138 496.962 594.846 496.996 592C497.111 582.388 497.447 572.599 496.96 563C496.82 560.248 495.64 553.581 491.299 556.086z"/>
<path style="fill:#a5a5a5; stroke:none;" d="M509.333 555.667L509.667 556.333L509.333 555.667z"/>
<path style="fill:#8b8b8b; stroke:none;" d="M560.667 555.333L561.333 555.667L560.667 555.333z"/>
<path style="fill:#5d5d5d; stroke:none;" d="M562 555L562 556L571 556L562 555z"/>
<path style="fill:#9f9f9f; stroke:none;" d="M372 556L373 557L372 556z"/>
<path style="fill:#9a9a9a; stroke:none;" d="M518 556L520 562L518 556z"/>
<path style="fill:#545454; stroke:none;" d="M214.333 557.667L214.667 558.333L214.333 557.667z"/>
<path style="fill:#565656; stroke:none;" d="M303.333 557.667L303.667 558.333L303.333 557.667z"/>
<path style="fill:#8e8e8e; stroke:none;" d="M370 557L371 558L370 557z"/>
<path style="fill:#6f6f6f; stroke:none;" d="M496.333 557.667L496.667 558.333L496.333 557.667z"/>
<path style="fill:#929292; stroke:none;" d="M537 557L537 561L538 561L537 557z"/>
<path style="fill:#9e9e9e; stroke:none;" d="M554 557L555 558L554 557z"/>
<path style="fill:#a9a9a9; stroke:none;" d="M319 558L319 561L320 561L319 558z"/>
<path style="fill:#6b6b6b; stroke:none;" d="M353 558L353 561L354 561L353 558z"/>
<path style="fill:#9a9a9a; stroke:none;" d="M522 558L523 559L522 558z"/>
<path style="fill:#a9a9a9; stroke:none;" d="M552 558L553 559L552 558z"/>
<path style="fill:#7a7a7a; stroke:none;" d="M367 559L368 560L367 559z"/>
<path style="fill:#797979; stroke:none;" d="M464 559L465 560L464 559z"/>
<path style="fill:#737373; stroke:none;" d="M488 559L488 563L489 563L488 559z"/>
<path style="fill:#767676; stroke:none;" d="M521 559L522 560L521 559z"/>
<path style="fill:#a1a1a1; stroke:none;" d="M213.333 560.667L213.667 561.333L213.333 560.667z"/>
<path style="fill:#b1b1b1; stroke:none;" d="M270 560L270 574L271 574L270 560z"/>
<path style="fill:#afafaf; stroke:none;" d="M280 560L280 578L281 578L280 560z"/>
<path style="fill:#cbcbcb; stroke:none;" d="M302 560L302 577L303 577L302 560z"/>
<path style="fill:#afafaf; stroke:none;" d="M312 560L312 575L313 575L312 560z"/>
<path style="fill:#828282; stroke:none;" d="M520 560L521 561L520 560z"/>
<path style="fill:#a9a9a9; stroke:none;" d="M461 561L462 562L461 561z"/>
<path style="fill:#b9b9b9; stroke:none;" d="M508 561L508 592L509 592L508 561z"/>
<path style="fill:#585858; stroke:none;" d="M213 562L213 565L214 565L213 562z"/>
<path style="fill:#7e7e7e; stroke:none;" d="M320 562L321 563L320 562z"/>
<path style="fill:#939393; stroke:none;" d="M352 562L353 563L352 562z"/>
<path style="fill:#7a7a7a; stroke:none;" d="M473 562L474 563L473 562z"/>
<path style="fill:#939393; stroke:none;" d="M536 562L537 563L536 562z"/>
<path style="fill:#c5c5c5; stroke:none;" d="M223 563L223 573L224 573L223 563z"/>
<path style="fill:#a6a6a6; stroke:none;" d="M321 563L322 564L321 563z"/>
<path style="fill:#8a8a8a; stroke:none;" d="M363 563L364 564L363 563z"/>
<path style="fill:#7f7f7f; stroke:none;" d="M380 563L380 564L386 564L380 563z"/>
<path style="fill:#929292; stroke:none;" d="M401 563L402 564L401 563z"/>
<path style="fill:#b7b7b7; stroke:none;" d="M453 563L453 564L456 564L453 563z"/>
<path style="fill:#9c9c9c; stroke:none;" d="M535 563L536 564L535 563z"/>
<path style="fill:#a5a5a5; stroke:none;" d="M331 564L331 590L332 590L331 564z"/>
<path style="fill:#ffffff; stroke:none;" d="M369 576C372.637 576.685 376.312 577.479 380 577.83C386.055 578.406 399.879 574.765 391.566 566.434C383.586 558.436 370.031 566.517 369 576z"/>
<path style="fill:#d2d2d2; stroke:none;" d="M497 564L497 569L498 569L497 564z"/>
<path style="fill:#8f8f8f; stroke:none;" d="M533 564L534 565L533 564z"/>
<path style="fill:#a1a1a1; stroke:none;" d="M561.667 564.333L562.333 564.667L561.667 564.333z"/>
<path style="fill:#ffffff; stroke:none;" d="M563 564.472C544.837 567.772 549.877 598.566 568.999 594.656C584.022 591.584 580.409 561.31 563 564.472z"/>
<path style="fill:#797979; stroke:none;" d="M470 565L471 566L470 565z"/>
<path style="fill:#919191; stroke:none;" d="M528 565L528 566L531 566L528 565z"/>
<path style="fill:#808080; stroke:none;" d="M545 565L546 566L545 565z"/>
<path style="fill:#cfcfcf; stroke:none;" d="M212 566L212 575L213 575L212 566z"/>
<path style="fill:#a0a0a0; stroke:none;" d="M361 566L362 567L361 566z"/>
<path style="fill:#a2a2a2; stroke:none;" d="M373 566L374 567L373 566z"/>
<path style="fill:#828282; stroke:none;" d="M468.333 566.667L468.667 567.333L468.333 566.667z"/>
<path style="fill:#c2c2c2; stroke:none;" d="M469.333 566.667L469.667 567.333L469.333 566.667z"/>
<path style="fill:#cbcbcb; stroke:none;" d="M525.667 566.333L526.333 566.667L525.667 566.333z"/>
<path style="fill:#a1a1a1; stroke:none;" d="M523 567L524 568L523 567M371 568L372 569L371 568z"/>
<path style="fill:#838383; stroke:none;" d="M403 568L403 574L404 574L403 568z"/>
<path style="fill:#7d7d7d; stroke:none;" d="M521 568L522 569L521 568z"/>
<path style="fill:#858585; stroke:none;" d="M575 568L576 569L575 568z"/>
<path style="fill:#9a9a9a; stroke:none;" d="M497 569L497 584L498 584L497 569z"/>
<path style="fill:#989898; stroke:none;" d="M520 569L521 570L520 569z"/>
<path style="fill:#9f9f9f; stroke:none;" d="M553 570L554 571L553 570z"/>
<path style="fill:#767676; stroke:none;" d="M359.333 571.667L359.667 572.333L359.333 571.667z"/>
<path style="fill:#e1e1e1; stroke:none;" d="M443 572L443 573L457 573L443 572z"/>
<path style="fill:#959595; stroke:none;" d="M457 572L457 573L460 573L457 572z"/>
<path style="fill:#626262; stroke:none;" d="M542.333 572.667L542.667 573.333L542.333 572.667z"/>
<path style="fill:#9a9a9a; stroke:none;" d="M577 572L577 575L578 575L577 572z"/>
<path style="fill:#888888; stroke:none;" d="M223 573L223 576L224 576L223 573z"/>
<path style="fill:#ffffff; stroke:none;" d="M443 573C443 578.041 441.695 585.216 443.603 589.941C450.174 606.212 485.42 580.879 462.985 573.653C457.028 571.734 449.209 573 443 573z"/>
<path style="fill:#7b7b7b; stroke:none;" d="M393 574L394 575L393 574z"/>
<path style="fill:#6c6c6c; stroke:none;" d="M442 574L442 589L443 589L442 574z"/>
<path style="fill:#7a7a7a; stroke:none;" d="M465 574L466 575L465 574z"/>
<path style="fill:#9e9e9e; stroke:none;" d="M551.333 574.667L551.667 575.333L551.333 574.667z"/>
<path style="fill:#b5b5b5; stroke:none;" d="M358 575L358 583L359 583L358 575z"/>
<path style="fill:#e1e1e1; stroke:none;" d="M519 575L519 583L520 583L519 575z"/>
<path style="fill:#626262; stroke:none;" d="M213 576L213 579L214 579L213 576z"/>
<path style="fill:#a0a0a0; stroke:none;" d="M391 576L392 577L391 576z"/>
<path style="fill:#b3b3b3; stroke:none;" d="M541 576L541 584L542 584L541 576z"/>
<path style="fill:#d9d9d9; stroke:none;" d="M551 576L551 581L552 581L551 576z"/>
<path style="fill:#3f3f3f; stroke:none;" d="M586 576L586 591L587 591L586 576z"/>
<path style="fill:#757575; stroke:none;" d="M302 577L302 580L303 580L302 577z"/>
<path style="fill:#a9a9a9; stroke:none;" d="M375 577L375 578L378 578L375 577z"/>
<path style="fill:#777777; stroke:none;" d="M388.667 577.333L389.333 577.667L388.667 577.333z"/>
<path style="fill:#a1a1a1; stroke:none;" d="M468 577L469 578L468 577z"/>
<path style="fill:#474747; stroke:none;" d="M578 577L578 581L579 581L578 577z"/>
<path style="fill:#aaaaaa; stroke:none;" d="M479 580L479 585L480 585L479 580z"/>
<path style="fill:#9d9d9d; stroke:none;" d="M271 581L271 584L272 584L271 581z"/>
<path style="fill:#939393; stroke:none;" d="M311 581L311 584L312 584L311 581z"/>
<path style="fill:#9a9a9a; stroke:none;" d="M551 581L551 584L552 584L551 581z"/>
<path style="fill:#c7c7c7; stroke:none;" d="M214.333 582.667L214.667 583.333L214.333 582.667z"/>
<path style="fill:#686868; stroke:none;" d="M340 582L340 595L341 595L340 582z"/>
<path style="fill:#8c8c8c; stroke:none;" d="M281 583L281 586L282 586L281 583z"/>
<path style="fill:#989898; stroke:none;" d="M301 583L301 586L302 586L301 583z"/>
<path style="fill:#bdbdbd; stroke:none;" d="M394.667 583.333L395.333 583.667L394.667 583.333z"/>
<path style="fill:#474747; stroke:none;" d="M375 584L375 585L379 585L375 584z"/>
<path style="fill:#808080; stroke:none;" d="M389 584L389 585L392 585L389 584z"/>
<path style="fill:#bfbfbf; stroke:none;" d="M497 584L497 592L498 592L497 584z"/>
<path style="fill:#888888; stroke:none;" d="M215 585L216 586L215 585z"/>
<path style="fill:#585858; stroke:none;" d="M469.333 585.667L469.667 586.333L469.333 585.667z"/>
<path style="fill:#8e8e8e; stroke:none;" d="M577.333 585.667L577.667 586.333L577.333 585.667z"/>
<path style="fill:#a8a8a8; stroke:none;" d="M272.333 586.667L272.667 587.333L272.333 586.667z"/>
<path style="fill:#9c9c9c; stroke:none;" d="M310.333 586.667L310.667 587.333L310.333 586.667z"/>
<path style="fill:#adadad; stroke:none;" d="M359.333 586.667L359.667 587.333L359.333 586.667z"/>
<path style="fill:#767676; stroke:none;" d="M216 587L217 588L216 587z"/>
<path style="fill:#616161; stroke:none;" d="M282.333 587.667L282.667 588.333L282.333 587.667z"/>
<path style="fill:#bebebe; stroke:none;" d="M542.333 587.667L542.667 588.333L542.333 587.667z"/>
<path style="fill:#8e8e8e; stroke:none;" d="M229 588L230 589L229 588z"/>
<path style="fill:#b2b2b2; stroke:none;" d="M258 588L258 589L261 589L258 588z"/>
<path style="fill:#848484; stroke:none;" d="M217 589L218 590L217 589z"/>
<path style="fill:#909090; stroke:none;" d="M230 589L231 590L230 589z"/>
<path style="fill:#838383; stroke:none;" d="M467 589L468 590L467 589z"/>
<path style="fill:#808080; stroke:none;" d="M518 589L518 599L519 599L518 589z"/>
<path style="fill:#818181; stroke:none;" d="M576 589L577 590L576 589z"/>
<path style="fill:#7c7c7c; stroke:none;" d="M466 590L467 591L466 590z"/>
<path style="fill:#7a7a7a; stroke:none;" d="M543 590L544 591L543 590z"/>
<path style="fill:#8c8c8c; stroke:none;" d="M433 591L433 594L434 594L433 591z"/>
<path style="fill:#a3a3a3; stroke:none;" d="M374 592L375 593L374 592z"/>
<path style="fill:#818181; stroke:none;" d="M476 592L477 593L476 592z"/>
<path style="fill:#bfbfbf; stroke:none;" d="M237.667 593.333L238.333 593.667L237.667 593.333z"/>
<path style="fill:#9a9a9a; stroke:none;" d="M246 593L246 594L249 594L246 593z"/>
<path style="fill:#767676; stroke:none;" d="M394.667 593.333L395.333 593.667L394.667 593.333z"/>
<path style="fill:#949494; stroke:none;" d="M458.667 593.333L459.333 593.667L458.667 593.333z"/>
<path style="fill:#8a8a8a; stroke:none;" d="M488 593L488 599L489 599L488 593z"/>
<path style="fill:#787878; stroke:none;" d="M588 593L589 594L588 593z"/>
<path style="fill:#aaaaaa; stroke:none;" d="M378.667 594.333L379.333 594.667L378.667 594.333z"/>
<path style="fill:#808080; stroke:none;" d="M390.667 594.333L391.333 594.667L390.667 594.333z"/>
<path style="fill:#4d4d4d; stroke:none;" d="M449 594L449 595L456 595L449 594z"/>
<path style="fill:#8f8f8f; stroke:none;" d="M545 594L546 595L545 594z"/>
<path style="fill:#8a8a8a; stroke:none;" d="M262 595L263 596L262 595z"/>
<path style="fill:#8f8f8f; stroke:none;" d="M340 595L340 599L341 599L340 595z"/>
<path style="fill:#4c4c4c; stroke:none;" d="M382 595L382 596L388 596L382 595z"/>
<path style="fill:#a7a7a7; stroke:none;" d="M402 595L402 598L403 598L402 595z"/>
<path style="fill:#9a9a9a; stroke:none;" d="M276 596L277 597L276 596z"/>
<path style="fill:#8f8f8f; stroke:none;" d="M306 596L307 597L306 596z"/>
<path style="fill:#898989; stroke:none;" d="M364 596L365 597L364 596z"/>
<path style="fill:#646464; stroke:none;" d="M590 596L590 600L591 600L590 596z"/>
<path style="fill:#838383; stroke:none;" d="M365 597L366 598L365 597z"/>
<path style="fill:#9a9a9a; stroke:none;" d="M366 598L367 599L366 598z"/>
<path style="fill:#777777; stroke:none;" d="M435 598L436 599L435 598z"/>
<path style="fill:#767676; stroke:none;" d="M496 598L496 601L497 601L496 598z"/>
<path style="fill:#b6b6b6; stroke:none;" d="M509.333 598.667L509.667 599.333L509.333 598.667z"/>
<path style="fill:#a8a8a8; stroke:none;" d="M226 599L227 600L226 599z"/>
<path style="fill:#797979; stroke:none;" d="M228 600L229 601L228 600z"/>
<path style="fill:#a5a5a5; stroke:none;" d="M257 600L258 601L257 600z"/>
<path style="fill:#989898; stroke:none;" d="M332 600L333 601L332 600z"/>
<path style="fill:#7e7e7e; stroke:none;" d="M369 600L370 601L369 600z"/>
<path style="fill:#898989; stroke:none;" d="M437 600L438 601L437 600z"/>
<path style="fill:#9a9a9a; stroke:none;" d="M551 600L552 601L551 600z"/>
<path style="fill:#787878; stroke:none;" d="M576 600L577 601L576 600z"/>
<path style="fill:#9f9f9f; stroke:none;" d="M281 601L282 602L281 601z"/>
<path style="fill:#989898; stroke:none;" d="M301 601L302 602L301 601z"/>
<path style="fill:#828282; stroke:none;" d="M339 601L340 602L339 601z"/>
<path style="fill:#a8a8a8; stroke:none;" d="M462.667 601.333L463.333 601.667L462.667 601.333z"/>
<path style="fill:#868686; stroke:none;" d="M489 601L490 602L489 601z"/>
<path style="fill:#999999; stroke:none;" d="M517 601L518 602L517 601z"/>
<path style="fill:#5b5b5b; stroke:none;" d="M232.667 602.333L233.333 602.667L232.667 602.333z"/>
<path style="fill:#878787; stroke:none;" d="M283 602L284 603L283 602z"/>
<path style="fill:#838383; stroke:none;" d="M299 602L300 603L299 602z"/>
<path style="fill:#5b5b5b; stroke:none;" d="M373.667 602.333L374.333 602.667L373.667 602.333z"/>
<path style="fill:#c8c8c8; stroke:none;" d="M395.667 602.333L396.333 602.667L395.667 602.333z"/>
<path style="fill:#949494; stroke:none;" d="M441.667 602.333L442.333 602.667L441.667 602.333z"/>
<path style="fill:#545454; stroke:none;" d="M455 602L455 603L458 603L455 602z"/>
<path style="fill:#b5b5b5; stroke:none;" d="M458.667 602.333L459.333 602.667L458.667 602.333z"/>
<path style="fill:#8b8b8b; stroke:none;" d="M490 602L491 603L490 602z"/>
<path style="fill:#838383; stroke:none;" d="M516 602L517 603L516 602z"/>
<path style="fill:#7d7d7d; stroke:none;" d="M572 602L573 603L572 602z"/>
<path style="fill:#878787; stroke:none;" d="M235.667 603.333L236.333 603.667L235.667 603.333z"/>
<path style="fill:#8b8b8b; stroke:none;" d="M247 603L247 604L250 604L247 603z"/>
<path style="fill:#898989; stroke:none;" d="M285.667 603.333L286.333 603.667L285.667 603.333z"/>
<path style="fill:#858585; stroke:none;" d="M295 603L295 604L298 604L295 603z"/>
<path style="fill:#969696; stroke:none;" d="M376.667 603.333L377.333 603.667L376.667 603.333z"/>
<path style="fill:#898989; stroke:none;" d="M390 603L390 604L393 604L390 603z"/>
<path style="fill:#878787; stroke:none;" d="M558.667 603.333L559.333 603.667L558.667 603.333z"/>
<path style="fill:#8a8a8a; stroke:none;" d="M568.667 603.333L569.333 603.667L568.667 603.333z"/>
</svg>
